<svg xmlns="http://www.w3.org/2000/svg" xmlns:xlink="http://www.w3.org/1999/xlink" id="Layer_1" width="21.3" height="20" x="0" style="enable-background:new 0 0 21.3 20" y="0" version="1.1" viewBox="0 0 21.3 20" xml:space="preserve"><style type="text/css">.st0{fill:#57595d}</style><g><g><path d="M17.3,1.3h4V20H0V1.3h4V0h1.3v1.3H16V0h1.3V1.3z M4,2.7H1.3v2.7H20V2.7h-2.7V4H16V2.7H5.3V4H4V2.7z M1.3,18.7 H20v-12H1.3V18.7z M4,12v-1.3h1.3V12H4z M4,14.7v-1.3h1.3v1.3H4z M4,17.3V16h1.3v1.3H4z M8,9.3V8h1.3v1.3H8z M8,12v-1.3h1.3V12H8z M8,14.7v-1.3h1.3v1.3H8z M8,17.3V16h1.3v1.3H8z M12,9.3V8h1.3v1.3H12z M12,12v-1.3h1.3V12H12z M12,14.7v-1.3h1.3v1.3H12z M12,17.3V16h1.3v1.3H12z M16,9.3V8h1.3v1.3H16z M16,12v-1.3h1.3V12H16z M16,14.7v-1.3h1.3v1.3H16z" class="st0"/></g></g></svg>